<mxfile host="Electron" agent="Mozilla/5.0 (Windows NT 10.0; Win64; x64) AppleWebKit/537.36 (KHTML, like Gecko) draw.io/24.7.17 Chrome/128.0.6613.36 Electron/32.0.1 Safari/537.36" version="24.7.17">
  <diagram id="C5RBs43oDa-KdzZeNtuy" name="Page-1">
    <mxGraphModel dx="1434" dy="836" grid="1" gridSize="10" guides="1" tooltips="1" connect="1" arrows="1" fold="1" page="1" pageScale="1" pageWidth="827" pageHeight="1169" math="0" shadow="0">
      <root>
        <mxCell id="WIyWlLk6GJQsqaUBKTNV-0" />
        <mxCell id="WIyWlLk6GJQsqaUBKTNV-1" parent="WIyWlLk6GJQsqaUBKTNV-0" />
        <mxCell id="xTxRY4DP3d19BKUtcph0-2" value="" style="edgeStyle=orthogonalEdgeStyle;rounded=0;orthogonalLoop=1;jettySize=auto;html=1;" edge="1" parent="WIyWlLk6GJQsqaUBKTNV-1" source="xTxRY4DP3d19BKUtcph0-0">
          <mxGeometry relative="1" as="geometry">
            <mxPoint x="430" y="260" as="targetPoint" />
          </mxGeometry>
        </mxCell>
        <mxCell id="xTxRY4DP3d19BKUtcph0-0" value="Bắt đầu" style="ellipse;whiteSpace=wrap;html=1;" vertex="1" parent="WIyWlLk6GJQsqaUBKTNV-1">
          <mxGeometry x="370" y="90" width="120" height="80" as="geometry" />
        </mxCell>
        <mxCell id="xTxRY4DP3d19BKUtcph0-5" value="đúng" style="edgeStyle=orthogonalEdgeStyle;rounded=0;orthogonalLoop=1;jettySize=auto;html=1;" edge="1" parent="WIyWlLk6GJQsqaUBKTNV-1" target="xTxRY4DP3d19BKUtcph0-4">
          <mxGeometry relative="1" as="geometry">
            <mxPoint x="470" y="300" as="sourcePoint" />
          </mxGeometry>
        </mxCell>
        <mxCell id="xTxRY4DP3d19BKUtcph0-17" style="edgeStyle=orthogonalEdgeStyle;rounded=0;orthogonalLoop=1;jettySize=auto;html=1;entryX=1;entryY=0.5;entryDx=0;entryDy=0;exitX=0.5;exitY=1;exitDx=0;exitDy=0;" edge="1" parent="WIyWlLk6GJQsqaUBKTNV-1" source="xTxRY4DP3d19BKUtcph0-4" target="xTxRY4DP3d19BKUtcph0-14">
          <mxGeometry relative="1" as="geometry" />
        </mxCell>
        <mxCell id="xTxRY4DP3d19BKUtcph0-4" value="phương trình có 1 nghiệm x=-b/a" style="shape=parallelogram;perimeter=parallelogramPerimeter;whiteSpace=wrap;html=1;fixedSize=1;" vertex="1" parent="WIyWlLk6GJQsqaUBKTNV-1">
          <mxGeometry x="530" y="270" width="120" height="60" as="geometry" />
        </mxCell>
        <mxCell id="xTxRY4DP3d19BKUtcph0-8" value="sai" style="edgeStyle=orthogonalEdgeStyle;rounded=0;orthogonalLoop=1;jettySize=auto;html=1;" edge="1" parent="WIyWlLk6GJQsqaUBKTNV-1" source="xTxRY4DP3d19BKUtcph0-6" target="xTxRY4DP3d19BKUtcph0-7">
          <mxGeometry relative="1" as="geometry" />
        </mxCell>
        <mxCell id="xTxRY4DP3d19BKUtcph0-6" value="&lt;span style=&quot;color: rgb(0, 0, 0); font-family: &amp;quot;Open Sans&amp;quot;, Arial, sans-serif; font-size: 18px; text-align: justify; background-color: rgb(255, 255, 255);&quot;&gt;a ≠ 0&lt;/span&gt;" style="rhombus;whiteSpace=wrap;html=1;" vertex="1" parent="WIyWlLk6GJQsqaUBKTNV-1">
          <mxGeometry x="390" y="260" width="80" height="80" as="geometry" />
        </mxCell>
        <mxCell id="xTxRY4DP3d19BKUtcph0-10" value="sai" style="edgeStyle=orthogonalEdgeStyle;rounded=0;orthogonalLoop=1;jettySize=auto;html=1;" edge="1" parent="WIyWlLk6GJQsqaUBKTNV-1" source="xTxRY4DP3d19BKUtcph0-7" target="xTxRY4DP3d19BKUtcph0-9">
          <mxGeometry relative="1" as="geometry" />
        </mxCell>
        <mxCell id="xTxRY4DP3d19BKUtcph0-12" value="đúng" style="edgeStyle=orthogonalEdgeStyle;rounded=0;orthogonalLoop=1;jettySize=auto;html=1;" edge="1" parent="WIyWlLk6GJQsqaUBKTNV-1" source="xTxRY4DP3d19BKUtcph0-7" target="xTxRY4DP3d19BKUtcph0-11">
          <mxGeometry relative="1" as="geometry" />
        </mxCell>
        <mxCell id="xTxRY4DP3d19BKUtcph0-7" value="b=0" style="rhombus;whiteSpace=wrap;html=1;" vertex="1" parent="WIyWlLk6GJQsqaUBKTNV-1">
          <mxGeometry x="230" y="260" width="80" height="80" as="geometry" />
        </mxCell>
        <mxCell id="xTxRY4DP3d19BKUtcph0-16" style="edgeStyle=orthogonalEdgeStyle;rounded=0;orthogonalLoop=1;jettySize=auto;html=1;entryX=0.5;entryY=0;entryDx=0;entryDy=0;" edge="1" parent="WIyWlLk6GJQsqaUBKTNV-1" source="xTxRY4DP3d19BKUtcph0-9" target="xTxRY4DP3d19BKUtcph0-14">
          <mxGeometry relative="1" as="geometry" />
        </mxCell>
        <mxCell id="xTxRY4DP3d19BKUtcph0-9" value="phương trình vô nghiệm" style="shape=parallelogram;perimeter=parallelogramPerimeter;whiteSpace=wrap;html=1;fixedSize=1;" vertex="1" parent="WIyWlLk6GJQsqaUBKTNV-1">
          <mxGeometry x="210" y="400" width="120" height="60" as="geometry" />
        </mxCell>
        <mxCell id="xTxRY4DP3d19BKUtcph0-15" style="edgeStyle=orthogonalEdgeStyle;rounded=0;orthogonalLoop=1;jettySize=auto;html=1;entryX=0;entryY=0.5;entryDx=0;entryDy=0;exitX=0.5;exitY=1;exitDx=0;exitDy=0;" edge="1" parent="WIyWlLk6GJQsqaUBKTNV-1" source="xTxRY4DP3d19BKUtcph0-11" target="xTxRY4DP3d19BKUtcph0-14">
          <mxGeometry relative="1" as="geometry" />
        </mxCell>
        <mxCell id="xTxRY4DP3d19BKUtcph0-11" value="phương trình vô số nghiệm" style="shape=parallelogram;perimeter=parallelogramPerimeter;whiteSpace=wrap;html=1;fixedSize=1;" vertex="1" parent="WIyWlLk6GJQsqaUBKTNV-1">
          <mxGeometry x="40" y="270" width="130" height="60" as="geometry" />
        </mxCell>
        <mxCell id="xTxRY4DP3d19BKUtcph0-14" value="kết thúc" style="ellipse;whiteSpace=wrap;html=1;" vertex="1" parent="WIyWlLk6GJQsqaUBKTNV-1">
          <mxGeometry x="370" y="520" width="120" height="80" as="geometry" />
        </mxCell>
      </root>
    </mxGraphModel>
  </diagram>
</mxfile>
